<?xml version="1.0" encoding="UTF-8"?>
<!-- Generated by Pixelmator Pro 3.2.3 -->
<svg viewBox="0 0 796 960" xmlns="http://www.w3.org/2000/svg" xmlns:xlink="http://www.w3.org/1999/xlink">
    <g id="g10-copy">
        <g id="g12">
            <g id="g410">
                <path id="path412" fill="#144272" stroke="none" d="M 554.935181 68.070984 C 567.703125 67.475769 575.994202 66.728149 575.994202 66.728149 C 575.994202 66.728149 567.703125 65.991699 554.935181 65.39624 C 540.601929 61.645264 529.311584 50.361633 525.562866 36.026062 C 524.967529 23.26062 524.239868 14.984741 524.239868 14.984741 C 524.239868 14.984741 523.490173 23.26062 522.916626 36.026062 C 519.146057 50.361633 507.877777 61.645264 493.544281 65.39624 C 480.776581 65.991699 472.485291 66.728149 472.485291 66.728149 C 472.485291 66.728149 480.776581 67.475769 493.544281 68.070984 C 507.877777 71.810913 519.146057 83.105713 522.916626 97.427917 C 523.490173 110.206726 524.239868 118.484802 524.239868 118.484802 C 524.239868 118.484802 524.967529 110.206726 525.562866 97.427917 C 529.311584 83.105713 540.601929 71.810913 554.935181 68.070984"/>
            </g>
            <g id="g422">
                <path id="path424" fill="#144272" stroke="none" d="M 240.316956 132.137634 C 244.764572 132.137634 249.17157 132.479675 253.478302 133.139771 L 241.584717 45.979492 L 231.945358 132.544189 C 234.742462 132.276428 237.53981 132.137634 240.316956 132.137634 Z M 257.965851 141.670471 C 257.684052 141.670471 257.402527 141.632202 257.120758 141.569885 C 247.94397 139.515259 237.982437 139.173035 228.222137 140.680298 C 227.034912 140.859497 225.867645 140.479065 225.002365 139.668091 C 224.157028 138.842957 223.714401 137.677795 223.855286 136.498596 L 237.419113 14.617676 C 237.620346 12.703857 239.23024 11.258972 241.14209 11.232727 C 243.033752 11.232727 244.703995 12.615417 244.965805 14.517029 L 261.729218 137.347839 C 261.890076 138.577454 261.447449 139.819092 260.52179 140.668335 C 259.817352 141.314331 258.891479 141.670471 257.965851 141.670471"/>
            </g>
            <g id="g426">
                <path id="path428" fill="#144272" stroke="none" d="M 117.786499 95.678406 L 172.892441 164.535156 C 177.412247 158.84491 182.622803 153.786316 188.484863 149.400879 Z M 172.971359 174.549805 C 171.826614 174.549805 170.721329 174.01886 170.010849 173.116821 L 92.641518 76.424988 C 91.437576 74.928955 91.555954 72.773621 92.878494 71.39209 C 94.220535 70.022339 96.391655 69.858459 97.911255 71.025024 L 197.228302 146.497498 C 198.214996 147.245422 198.767639 148.423828 198.72818 149.653442 C 198.688721 150.89679 198.03743 152.023804 197.011063 152.70874 C 188.760849 158.13446 181.734756 164.927979 176.069977 172.941223 C 175.398956 173.916138 174.27417 174.512329 173.089966 174.537842 C 173.050278 174.549805 173.010818 174.549805 172.971359 174.549805"/>
            </g>
            <g id="g430">
                <path id="path432" fill="#144272" stroke="none" d="M 67.740936 219.219788 L 154.50174 228.866028 C 154.092072 225.481323 153.896881 222.032471 153.896881 218.560059 C 153.896881 214.783203 154.130844 211.029846 154.618958 207.3797 Z M 159.010635 237.003296 C 158.874161 237.003296 158.737457 236.991577 158.600739 236.978027 L 36.374111 223.389038 C 34.461327 223.174316 33.01693 221.577637 32.997433 219.651184 C 32.958439 217.736389 34.363842 216.100769 36.296124 215.835205 L 158.698456 199.140869 C 159.908661 198.974915 161.138123 199.419861 161.977417 200.30603 C 162.836441 201.205933 163.187622 202.449219 162.95343 203.665222 C 161.977417 208.445435 161.509033 213.463684 161.509033 218.560059 C 161.509033 223.31488 161.91893 228.003296 162.758224 232.504272 C 162.97316 233.694885 162.621521 234.912842 161.801941 235.787292 C 161.079636 236.560242 160.064636 237.003296 159.010635 237.003296"/>
            </g>
            <g id="g434">
                <path id="path436" fill="#144272" stroke="none" d="M 171.779495 271.217834 L 117.228287 343.028137 L 187.385147 286.89856 C 181.545593 282.360779 176.317169 277.112854 171.779495 271.217834 Z M 95.605042 369.001587 C 94.638321 369.001587 93.69133 368.63269 92.961357 367.924377 C 91.580322 366.580872 91.422493 364.4245 92.586502 362.903381 L 168.820145 262.534973 C 169.569839 261.558411 170.733856 260.976379 171.957062 261.025696 C 173.180252 261.065186 174.30481 261.684692 175.01506 262.698853 C 180.618103 270.977173 187.622131 278.012512 195.809677 283.615662 C 196.796127 284.300293 197.40773 285.414978 197.447189 286.618408 C 197.486649 287.823853 196.973694 288.978027 196.006973 289.725769 L 97.972527 368.1651 C 97.282013 368.72345 96.453629 369.001587 95.605042 369.001587"/>
            </g>
            <g id="g438">
                <path id="path440" fill="#144272" stroke="none" d="M 228.496948 304.192444 L 240.802521 394.496826 L 250.835541 304.343323 C 243.295578 305.268311 235.735413 305.193909 228.496948 304.192444 Z M 241.184341 429.265747 C 239.294296 429.265747 237.665604 427.872314 237.424454 425.984375 L 220.253006 300.084656 C 220.092163 298.868164 220.514359 297.637695 221.419342 296.80127 C 222.324081 295.952698 223.570724 295.596741 224.777222 295.850098 C 234.187027 297.778442 244.441711 297.929199 254.475204 296.103455 C 255.641296 295.888428 256.867737 296.244324 257.752533 297.068542 C 258.637329 297.878967 259.05954 299.071289 258.938843 300.261658 L 244.984604 425.881775 C 244.763412 427.795959 243.154922 429.241638 241.244919 429.265747 C 241.224487 429.265747 241.204529 429.265747 241.184341 429.265747"/>
            </g>
            <g id="g442">
                <path id="path444" fill="#144272" stroke="none" d="M 291.614044 288.112732 L 364.632294 343.584473 L 307.803223 272.546875 C 303.097015 278.440979 297.679657 283.651306 291.614044 288.112732 Z M 386.803558 368.999756 C 385.987915 368.999756 385.172089 368.746643 384.481781 368.225891 L 282.849945 290.990723 C 281.867218 290.24408 281.302246 289.064392 281.344269 287.821899 C 281.385803 286.579529 282.034332 285.439697 283.0802 284.768188 C 291.530243 279.327881 298.767303 272.383728 304.602936 264.155334 C 305.293213 263.180603 306.401764 262.584534 307.594086 262.546814 C 308.744385 262.494629 309.936493 263.040405 310.668549 263.977539 L 389.752686 362.825378 C 390.965912 364.322815 390.861237 366.477356 389.50177 367.845276 C 388.769714 368.606445 387.78653 368.999756 386.803558 368.999756"/>
            </g>
            <g id="g446">
                <path id="path448" fill="#144272" stroke="none" d="M 326.343384 210.029236 C 326.620056 212.855774 326.747711 215.720825 326.747711 218.560181 C 326.747711 223.200317 326.385864 227.8255 325.641022 232.350525 L 416.250397 219.992615 Z M 320.89447 240.640991 C 319.830261 240.640991 318.808533 240.198242 318.084808 239.398071 C 317.233459 238.486938 316.914063 237.205566 317.190735 235.990295 C 318.48938 230.322144 319.149017 224.466675 319.149017 218.560181 C 319.149017 214.464966 318.829865 210.333618 318.212708 206.28949 C 318.042114 205.123047 318.404205 203.931091 319.234192 203.081909 C 320.043091 202.219788 321.192474 201.802551 322.384338 201.928223 L 447.645538 215.833618 C 449.561096 216.037964 451.008514 217.634277 451.029877 219.560547 C 451.050995 221.476196 449.646301 223.110962 447.751831 223.376953 L 321.405334 240.602722 C 321.234955 240.628235 321.064606 240.640991 320.89447 240.640991"/>
            </g>
            <g id="g450">
                <path id="path452" fill="#144272" stroke="none" d="M 295.440765 151.981079 C 301.171692 156.697693 306.21283 162.108826 310.521393 168.130554 L 365.175659 96.207703 Z M 310.312286 178.486206 C 310.249603 178.486206 310.186951 178.486206 310.144928 178.486206 C 308.889923 178.423523 307.739624 177.752075 307.091339 176.687378 C 301.841095 168.258118 295.085175 160.981384 287.053375 155.087158 C 286.091309 154.390686 285.526367 153.273682 285.505707 152.09613 C 285.463684 150.916443 286.007507 149.789063 286.927826 149.052856 L 384.418671 71.083191 C 385.924805 69.878296 388.078979 69.993408 389.459778 71.323608 C 390.840118 72.666504 390.986572 74.822998 389.836029 76.343506 L 313.345215 176.978088 C 312.613159 177.929871 311.504608 178.486206 310.312286 178.486206"/>
            </g>
            <g id="g454">
                <path id="path456" fill="#144272" stroke="none" d="M 218.633362 138.8396 L 218.653336 138.8396 Z M 144.796692 38.686951 C 145.374405 43.021057 146.17099 48.319336 147.226608 54.709106 C 149.875641 70.858826 168.798096 85.04248 182.621399 95.397888 C 189.174225 100.303833 194.352982 104.183838 196.842773 107.53009 C 200.348511 112.296631 202.718781 123.24762 203.933853 140.158203 C 207.558884 138.459045 211.323425 137.026978 215.207489 135.861755 C 219.290695 101.546753 201.882263 83.317627 183.916092 77.678711 C 168.838013 72.924255 153.919159 53.021973 144.796692 38.686951 Z M 200.488007 149.995667 C 199.870377 149.995667 199.233002 149.830383 198.655533 149.513672 C 197.500336 148.880371 196.763168 147.701172 196.703522 146.382568 C 195.767426 128.711182 193.536423 115.88385 190.72818 112.055481 C 188.915421 109.609558 183.6371 105.665833 178.060059 101.483032 C 163.20108 90.354736 142.844681 75.11731 139.717514 55.949951 C 135.534729 30.572144 135.474838 21.991455 135.474838 21.636902 C 135.474838 19.888123 136.689926 18.352356 138.402863 17.947937 C 140.096085 17.529785 141.868668 18.340515 142.665268 19.900146 C 142.904327 20.344177 165.511475 63.899231 186.206512 70.426392 C 207.558884 77.132996 228.293625 98.770203 222.397903 139.385376 C 222.178787 140.881226 221.103439 142.110107 219.629333 142.502563 C 213.554184 144.137756 207.738068 146.496094 202.360168 149.499756 C 201.7827 149.830383 201.145325 149.995667 200.488007 149.995667"/>
            </g>
            <g id="g458">
                <path id="path460" fill="#144272" stroke="none" d="M 127.545639 171.533508 C 128.661377 171.533508 129.698654 171.59613 130.598999 171.735046 C 136.392822 172.598267 145.86647 178.707214 158.785034 189.901428 C 160.115936 186.086426 161.721176 182.371338 163.561081 178.797241 C 142.206161 151.695618 117.014977 151.075073 100.298927 159.757935 C 86.284363 167.05896 61.68018 163.547424 45.101303 159.84613 C 48.585449 162.508057 52.871983 165.702515 58.13731 169.480164 C 71.408447 179.024353 94.818436 175.665405 111.925819 173.20697 C 118.267654 172.294922 123.552483 171.533508 127.545639 171.533508 Z M 160.664169 200.447632 C 159.744324 200.447632 158.824265 200.105164 158.119583 199.470947 C 138.996124 182.232422 131.714722 179.595947 129.483261 179.253357 C 126.449394 178.80896 119.931396 179.748535 113.002327 180.737061 C 94.642036 183.373535 69.451096 186.984924 53.694103 175.653687 C 32.80896 160.644592 26.702017 154.635559 26.467125 154.383057 C 25.214449 153.140137 24.979557 151.214111 25.899626 149.716675 C 26.799965 148.209473 28.620142 147.524414 30.303608 148.070557 C 30.77339 148.223206 77.554382 163.026794 96.795288 153.001099 C 116.642914 142.695557 146.610138 143.366943 171.136093 176.160645 C 172.016937 177.350769 172.134384 178.973389 171.409988 180.27887 C 168.376129 185.730225 166.007706 191.57489 164.324478 197.646729 C 163.991867 198.913086 162.993347 199.915283 161.721176 200.295044 C 161.388336 200.39679 161.016495 200.447632 160.664169 200.447632"/>
            </g>
            <g id="g462">
                <path id="path464" fill="#144272" stroke="none" d="M 147.666916 245.007751 C 119.62989 245.007751 104.338501 260.686584 99.228683 276.899902 C 94.470978 291.983582 74.598282 306.891052 60.266422 316.01886 C 64.593346 315.435364 69.879562 314.648254 76.262482 313.596802 C 92.415207 310.959534 106.590164 292.034546 116.92794 278.231384 C 121.861816 271.652832 125.758186 266.45459 129.125809 263.969971 C 133.942017 260.383118 145.258591 257.986633 162.801636 256.821716 C 161.039474 253.258301 159.512222 249.54425 158.239578 245.704712 C 154.539108 245.234863 151.015045 245.007751 147.666916 245.007751 Z M 43.232616 325.334412 C 41.470467 325.334412 39.943439 324.130249 39.532146 322.419189 C 39.121086 320.72168 39.92371 318.945801 41.490196 318.146912 C 41.94025 317.919922 85.444832 295.306152 91.984421 274.619019 C 98.778397 253.06842 120.667633 232.254089 161.724655 238.517334 C 163.193192 238.732727 164.387375 239.784058 164.818161 241.191772 C 166.619537 247.263245 169.125595 253.031311 172.297318 258.343018 C 172.982727 259.482422 173.002228 260.901978 172.375549 262.082642 C 171.729599 263.26123 170.535172 264.020935 169.203812 264.085571 C 150.838654 264.947021 137.544769 267.190796 133.648407 270.080505 C 131.16185 271.905334 127.206757 277.19165 123.017014 282.793213 C 111.896111 297.638 96.663681 317.970764 77.495895 321.101501 C 52.121353 325.283508 43.585186 325.334412 43.232616 325.334412"/>
            </g>
            <g id="g466">
                <path id="path468" fill="#144272" stroke="none" d="M 197.092056 330.793579 L 197.092056 330.793579 Z M 201.925201 296.008545 C 173.30397 317.596802 172.428925 343.353882 181.339478 360.504761 C 188.638992 374.525024 185.098679 399.168335 181.399139 415.748352 C 184.064407 412.26178 187.286499 407.95166 191.06543 402.66687 C 200.592453 389.406494 197.231323 366.032166 194.784927 348.970825 C 193.631134 340.80603 192.696442 334.367798 193.33287 330.222717 C 194.247833 324.150452 200.791367 314.173828 212.784988 300.509644 C 209.045761 299.254639 205.425827 297.744934 201.925201 296.008545 Z M 173.244324 435.471008 C 172.568192 435.471008 171.89183 435.281982 171.27536 434.914063 C 169.763657 434.001099 169.087524 432.175354 169.62439 430.502563 C 169.783615 430.033203 184.601273 383.246643 174.596802 364.017334 C 164.015549 343.684143 164.95047 313.147583 199.359512 288.454407 C 200.533035 287.605103 202.104401 287.503784 203.377029 288.187927 C 208.767227 291.077881 214.555038 293.335327 220.581665 294.906616 C 221.874496 295.24884 222.889038 296.225403 223.266678 297.504211 C 223.644775 298.785095 223.326553 300.167542 222.431549 301.156067 C 209.642273 315.162415 201.587036 326.457703 200.851257 331.362488 C 200.851257 331.362488 200.851257 331.362488 200.851257 331.376404 C 200.393768 334.393677 201.328461 340.945313 202.323044 347.892822 C 204.948395 366.235046 208.548355 391.35968 197.251053 407.102417 C 182.234482 427.992432 176.188126 434.1026 175.94928 434.357117 C 175.213501 435.091064 174.238663 435.471008 173.244324 435.471008"/>
            </g>
            <g id="g470">
                <path id="path472" fill="#144272" stroke="none" d="M 267.593384 300.586609 C 262.24588 336.636292 279.877594 355.715027 298.499939 361.570129 C 313.571289 366.324829 328.498474 386.225403 337.582672 400.574219 C 337.004242 396.22821 336.240631 390.928467 335.187561 384.526245 C 332.56546 368.389404 313.6539 354.230469 299.84198 343.887024 C 293.255951 338.944458 288.032654 335.040283 285.555145 331.66687 C 281.859558 326.660217 279.42337 314.745422 278.308319 296.187012 C 274.881287 297.886169 271.288727 299.356201 267.593384 300.586609 Z M 343.09494 421.401672 C 341.690948 421.401672 340.369781 420.629578 339.708984 419.347412 C 339.48175 418.905579 316.895508 375.349121 296.208344 368.821045 C 274.158722 361.888123 253.182373 339.388367 260.449829 297.037537 C 260.69751 295.617065 261.729919 294.463074 263.092377 294.045959 C 269.059113 292.218811 274.695343 289.76001 279.877594 286.718689 C 281.033722 286.033325 282.458374 286.008606 283.634918 286.654907 C 284.811707 287.288635 285.555145 288.492371 285.596222 289.836243 C 286.422058 309.154663 288.693207 323.111084 291.66626 327.15564 C 293.503845 329.626892 298.80957 333.595093 304.404724 337.802734 C 319.24884 348.920471 339.564392 364.144653 342.702698 383.297729 C 346.852509 408.675598 346.893829 417.255981 346.893829 417.598694 C 346.893829 419.361938 345.696381 420.881409 343.982758 421.300598 C 343.693542 421.376953 343.383911 421.401672 343.09494 421.401672"/>
            </g>
            <g id="g474">
                <path id="path476" fill="#144272" stroke="none" d="M 317.111603 258.224915 C 338.797272 287.480469 364.768799 288.482605 382.061859 279.469238 C 396.135132 272.155457 420.46521 275.590515 437.288971 279.379761 C 433.85611 276.731384 429.548676 273.53717 424.26062 269.745972 C 410.997589 260.227295 387.627289 263.572876 370.547302 266.018677 C 362.402008 267.184998 355.941101 268.110291 351.782898 267.477112 C 345.641846 266.564453 335.53479 259.909424 321.717285 247.66571 C 320.437897 251.264954 318.881165 254.787659 317.111603 258.224915 Z M 361.527649 292.156494 C 344.682312 292.156494 325.811401 283.791504 309.520569 260.721863 C 308.688934 259.529907 308.603516 257.958435 309.307251 256.677002 C 312.292603 251.303467 314.616699 245.635681 316.215881 239.867859 C 316.578461 238.601257 317.559082 237.598999 318.838684 237.2323 C 320.09671 236.863342 321.482849 237.193848 322.442383 238.080994 C 336.55838 251.049683 347.944794 259.225037 352.913269 259.960693 C 355.962433 260.416992 362.529877 259.47876 369.481232 258.48938 C 387.840607 255.866577 412.959351 252.265198 428.695923 263.559998 C 450.253723 279.064087 455.861633 284.842712 455.92569 284.906677 C 457.119629 286.162598 457.311584 288.062622 456.394775 289.533813 C 455.477966 291.003052 453.665436 291.676697 452.023529 291.156433 L 452.023529 291.156433 C 434.41037 285.655212 400.591827 278.415894 385.580353 286.21167 C 378.543579 289.877075 370.312866 292.156494 361.527649 292.156494"/>
            </g>
            <g id="g478">
                <path id="path480" fill="#144272" stroke="none" d="M 322.994781 193.347412 C 358.524658 198.34021 377.361938 180.745178 383.181061 162.315735 C 387.895599 147.243713 407.794983 132.335266 422.130096 123.222351 C 417.797607 123.804321 412.48819 124.579468 406.095978 125.630676 C 389.976898 128.266113 375.790588 147.179993 365.447937 161.009644 C 360.521027 167.576172 356.634613 172.772827 353.279083 175.244873 C 348.37326 178.869995 336.799072 181.27832 318.874908 182.444214 C 320.510315 185.992859 321.890656 189.643677 322.994781 193.347412 Z M 335.036469 201.838074 C 330.151794 201.838074 324.948669 201.408997 319.405975 200.495789 C 317.919312 200.253723 316.730011 199.164185 316.347717 197.73291 C 314.776154 191.888367 312.482483 186.184143 309.530548 180.783508 C 308.893402 179.643066 308.914764 178.249817 309.55191 177.107422 C 310.188782 175.966797 311.378326 175.232117 312.694855 175.168396 C 331.319733 174.293457 344.805328 172.037964 348.755798 169.122131 C 351.197998 167.308472 355.169098 162.037415 359.352814 156.44574 C 370.48114 141.590393 385.708252 121.257874 404.863953 118.11261 C 430.284912 113.967224 438.822266 113.918335 439.162048 113.918335 C 440.924896 113.918335 442.453796 115.122498 442.857422 116.834167 C 443.282166 118.531128 442.475128 120.306519 440.903534 121.104919 C 440.457672 121.332275 396.921509 143.909485 390.422791 164.596497 C 384.43399 183.571899 366.89209 201.838074 335.036469 201.838074"/>
            </g>
            <g id="g482">
                <path id="path484" fill="#144272" stroke="none" d="M 270.560852 137.600952 C 274.327484 138.994995 277.929993 140.642822 281.36911 142.532166 C 309.106018 121.046936 309.82254 95.61908 301.061218 78.745667 C 293.712524 64.688965 297.151398 40.388977 300.917999 23.554565 C 298.277344 27.016052 295.104462 31.287964 291.317413 36.546692 C 281.778534 49.831848 285.135498 73.245361 287.591858 90.331604 C 288.758667 98.47052 289.679901 104.88385 289.065735 109.016724 C 288.738251 111.272461 287.755737 117.863831 270.560852 137.600952 Z M 281.655518 150.873718 C 281.000519 150.873718 280.325104 150.695557 279.731598 150.341492 C 274.532196 147.273071 268.8414 144.814575 262.82312 143.027588 C 261.553986 142.659119 260.592133 141.670471 260.223541 140.403259 C 259.87561 139.148499 260.182678 137.79126 261.062836 136.827209 C 278.544128 117.509644 281.205231 110.15686 281.553162 107.901001 C 282.003693 104.859253 281.062042 98.33136 280.059113 91.422729 C 277.438843 73.042725 273.815674 47.879028 285.156158 32.110901 C 300.774567 10.359558 306.485779 4.869446 306.526611 4.820374 C 307.816193 3.678162 309.699524 3.526672 311.132294 4.451965 C 312.585999 5.377197 313.220337 7.151978 312.708527 8.787415 C 307.202057 26.406006 299.976349 60.226501 307.795776 75.235107 C 318.235443 95.301819 317.437012 125.507324 283.927856 150.13678 C 283.252197 150.619812 282.453979 150.873718 281.655518 150.873718"/>
            </g>
            <g id="g486">
                <path id="path488" fill="#144272" stroke="none" d="M 103.964813 545.162048 C 121.608826 551.511414 135.613174 565.304321 142.022095 582.631714 C 148.450745 565.304321 162.455093 551.511414 180.099106 545.162048 C 162.455093 538.822388 148.450745 525.031616 142.022095 507.704071 C 135.613174 525.031616 121.608826 538.822388 103.964813 545.162048 Z M 142.022095 607.731018 C 139.925476 607.731018 138.204407 606.017944 138.204407 603.927246 C 138.204407 573.619873 113.043877 548.963745 82.087883 548.963745 C 79.971306 548.963745 78.270195 547.266541 78.270195 545.162048 C 78.270195 543.069275 79.971306 541.358276 82.087883 541.358276 C 113.043877 541.358276 138.204407 516.716064 138.204407 486.406708 C 138.204407 484.315887 139.925476 482.604919 142.022095 482.604919 C 144.118713 482.604919 145.819809 484.315887 145.819809 486.406708 C 145.819809 516.716064 171.03978 541.358276 202.015503 541.358276 C 204.11235 541.358276 205.813446 543.069275 205.813446 545.162048 C 205.813446 547.266541 204.11235 548.963745 202.015503 548.963745 C 171.03978 548.963745 145.819809 573.619873 145.819809 603.927246 C 145.819809 606.017944 144.118713 607.731018 142.022095 607.731018"/>
            </g>
            <g id="g490">
                <path id="path492" fill="#144272" stroke="none" d="M 473.429749 956.462402 C 473.385864 956.462402 473.34201 956.462402 473.298126 956.462402 C 471.195007 956.385742 469.551697 954.624268 469.639221 952.518738 C 469.661255 951.326904 473.692474 832.211609 452.571991 781.543762 C 445.4953 764.546387 437.410583 751.464233 429.588837 738.800598 C 414.055145 713.650696 399.375824 689.909424 399.375824 643.071533 C 399.375824 625.539429 399.791992 611.519531 400.098816 600.264771 C 401.062531 567.216431 401.435059 553.540527 390.107819 523.877197 C 381.300537 500.896515 381.409882 484.061157 390.414673 478.840271 C 396.834015 475.113342 405.31308 478.548859 413.069153 488.028992 C 430.268219 509.046692 446.897217 532.332153 445.144592 565.505249 C 443.87381 589.489563 458.509247 616.273926 469.573517 626.389526 C 472.925598 629.456848 475.423523 630.585205 476.825684 630.648682 C 477.986908 629.202698 481.821075 621.357056 483.50824 579.474731 C 484.603577 552.311401 484.494019 520.023438 484.406281 498.652863 C 484.38446 493.620331 484.362396 489.093781 484.362396 485.229004 C 484.362396 465.276001 477.61438 432.102783 471.08548 400.020874 C 464.972717 370.103394 459.232269 341.835815 459.232269 325.662292 C 459.232269 305.68512 464.227905 292.907593 472.597168 291.487793 C 475.445343 291.005798 482.565887 291.397949 487.429932 305.343384 C 489.796021 312.161621 495.383026 325.839722 501.824432 341.68457 C 514.400391 372.563843 530.043701 410.997375 535.192505 430.492432 C 542.992432 459.92572 552.259949 550.383423 552.654297 554.224121 C 552.873413 556.316528 551.361694 558.178833 549.258362 558.395691 C 547.198853 558.610352 545.314636 557.089844 545.09552 554.997437 C 545.007813 554.059814 535.499329 461.295135 527.852844 432.444702 C 522.813599 413.418457 507.257813 375.239014 494.769592 344.548157 C 488.284302 328.615601 482.675446 314.849854 480.243439 307.838867 C 477.87735 301.007385 475.073059 298.774902 473.86795 298.991882 C 471.65506 299.357727 466.8349 306.596619 466.8349 325.662292 C 466.8349 341.062439 472.50943 368.964111 478.534668 398.498108 C 485.151337 430.961426 491.986847 464.515717 491.986847 485.229004 C 491.986847 489.080688 491.986847 493.607208 492.008911 498.626617 C 492.096405 521.17804 492.228027 555.251709 490.957458 583.341797 C 488.722504 632.574585 483.486206 637.416565 478.293518 638.15271 C 474.218445 638.735474 469.551697 636.669434 464.424957 632.004883 C 450.468414 619.227356 436.227295 590.021973 437.541962 565.100098 C 439.163208 534.652405 423.43222 512.710022 407.175507 492.846832 C 401.478912 485.8862 396.483765 484.111511 394.22699 485.41745 C 390.699463 487.459412 388.57428 498.677002 397.206543 521.164917 C 409.103394 552.234741 408.687225 566.355469 407.701447 600.479431 C 407.394623 611.686096 406.97821 625.640198 406.97821 643.071533 C 406.97821 687.740479 420.452454 709.557983 436.074127 734.808594 C 444.027222 747.711182 452.265137 761.060547 459.582977 778.616577 C 481.338989 830.815918 477.417084 947.841064 477.241852 952.799194 C 477.154358 954.852112 475.467407 956.462402 473.429749 956.462402"/>
            </g>
            <g id="g494">
                <path id="path496" fill="#144272" stroke="none" d="M 604.936462 580.941406 C 603.134155 580.941406 601.531677 579.635132 601.197876 577.772461 C 601.108765 577.253967 592.073608 524.215637 584.084229 482.549194 C 577.808594 449.641998 574.937866 438.221252 573.624878 434.444641 C 572.712708 431.731873 560.96228 423.706909 523.174744 412.742493 C 521.171875 412.159424 520.014832 410.042969 520.593262 408.026672 C 521.171875 406.010559 523.285889 404.857849 525.311279 405.440857 C 559.515808 415.366089 578.209412 424.303467 580.812927 431.972229 C 582.860352 437.802856 586.443359 454.346558 591.561768 481.118286 C 599.550903 522.860352 608.608337 575.972168 608.69751 576.506226 C 609.053528 578.571411 607.651611 580.536377 605.581909 580.892456 C 605.381592 580.928223 605.158997 580.941406 604.936462 580.941406"/>
            </g>
            <g id="g498">
                <path id="path500" fill="#144272" stroke="none" d="M 482.516235 442.408752 C 482.086151 442.408752 481.612885 442.333557 481.18277 442.167969 C 475.140137 439.886353 421.938629 419.351929 414.605927 398.626221 C 413.76709 396.217773 414.197174 393.796326 415.766907 391.983459 C 417.594757 389.854614 423.228882 383.351807 475.075836 393.353394 C 477.140198 393.744812 478.494751 395.748962 478.086243 397.802612 C 477.699097 399.869202 475.69928 401.223999 473.634918 400.819641 C 438.281921 393.998535 425.013794 395.303894 422.024719 396.673645 C 428.131897 411.352417 468.581512 429.289063 483.870789 435.043579 C 485.827911 435.778992 486.816925 437.972534 486.085785 439.937866 C 485.50528 441.471313 484.042786 442.408752 482.516235 442.408752"/>
            </g>
            <g id="g502">
                <path id="path504" fill="#144272" stroke="none" d="M 632.13739 957.459961 C 630.173828 957.459961 628.50354 955.96344 628.34552 953.974792 C 627.871521 948.282104 616.76593 814.411011 617.194885 785.07843 C 617.55603 758.747925 626.111023 729.758484 636.945496 693.049377 C 638.50293 687.738159 640.128113 682.237305 641.775879 676.530945 C 653.152283 637.476685 653.152283 603.835083 641.798584 567.442017 C 637.284119 552.966309 635.636169 542.039246 634.191772 532.391724 C 632.43103 520.629456 631.031677 511.336487 625.25293 499.459045 C 615.772766 480.001709 589.859741 486.249756 588.753967 486.516235 C 586.722351 487.024078 584.668213 485.793793 584.148987 483.766815 C 583.630005 481.726257 584.871582 479.658661 586.880188 479.153107 C 598.256653 476.261536 622.318604 476.096863 632.092651 496.125061 C 638.390137 509.054413 639.924805 519.336182 641.708069 531.263184 C 643.130188 540.630737 644.710144 551.266724 649.066528 565.173401 C 660.89447 603.087891 660.89447 638.08606 649.089294 678.661926 C 647.418823 684.379333 645.79364 689.880188 644.236389 695.205078 C 633.15332 732.762817 625.140137 759.903687 624.801453 785.179993 C 624.395264 814.144592 635.817017 951.959106 635.92981 953.340576 C 636.110352 955.430725 634.530212 957.270325 632.453552 957.446411 C 632.340759 957.459961 632.227966 957.459961 632.13739 957.459961"/>
            </g>
            <g id="g506">
                <path id="path508" fill="#144272" stroke="none" d="M 26.425579 477.315063 C 13.228024 477.315063 2.478027 466.578186 2.478027 453.369385 C 2.478027 451.266388 4.172402 449.566437 6.280854 449.566437 C 8.370738 449.566437 10.083914 451.266388 10.083914 453.369385 C 10.083914 462.383575 17.407558 469.708954 26.425579 469.708954 C 35.4436 469.708954 42.76701 462.383575 42.76701 453.369385 C 42.76701 444.357056 35.4436 437.018433 26.425579 437.018433 C 24.316895 437.018433 22.622519 435.320251 22.622519 433.215393 C 22.622519 431.12384 24.316895 429.412537 26.425579 429.412537 C 39.641701 429.412537 50.372898 440.160583 50.372898 453.369385 C 50.372898 466.578186 39.641701 477.315063 26.425579 477.315063"/>
            </g>
            <g id="g514">
                <path id="path516" fill="#144272" stroke="none" d="M 543.620056 899.255798 C 518.644043 899.255798 494.929504 898.925598 473.1185 898.267334 C 443.028259 897.418762 417.456177 896.024292 399.153931 894.249146 C 389.888489 893.347839 382.68692 892.373108 377.710083 891.334106 C 372.389282 890.217224 367.205902 888.760864 367.205902 884.387207 C 367.205902 880.013611 372.366302 878.554932 377.641388 877.440308 C 382.5495 876.412781 389.682129 875.438049 398.855896 874.536804 C 416.951599 872.775391 442.317291 871.394714 472.178223 870.532349 C 474.26532 870.431458 476.031189 872.128662 476.077148 874.220337 C 476.145844 876.325684 474.494629 878.073364 472.407532 878.137512 C 420.87326 879.621399 393.925018 882.270325 381.838348 884.387207 C 393.993744 886.504089 421.240448 889.178345 473.347809 890.673706 C 495.090118 891.320374 518.735718 891.650696 543.620056 891.650696 C 573.159729 891.650696 602.103577 891.155273 627.354431 890.231018 C 671.091125 888.696655 694.530334 886.327515 705.493164 884.387207 C 694.392944 882.435486 670.586487 880.038818 625.932739 878.479248 C 623.845642 878.403564 622.194214 876.642151 622.263184 874.536804 C 622.354858 872.447449 624.143677 870.835083 626.207825 870.874084 C 653.087341 871.825867 675.746704 873.206543 691.663574 874.892273 C 715.882446 877.440308 719.987976 879.887451 719.987976 884.387207 C 719.987976 888.873291 715.95166 891.295166 692.076294 893.856934 C 676.36615 895.528931 654.073547 896.909607 627.606934 897.836182 C 602.309937 898.760437 573.251648 899.255798 543.620056 899.255798"/>
            </g>
        </g>
    </g>
</svg>
